<svg xmlns="http://www.w3.org/2000/svg" xmlns:xlink="http://www.w3.org/1999/xlink" width="1000" zoomAndPan="magnify" viewBox="0 0 750 225" height="300" preserveAspectRatio="xMidYMid meet" version="1.0"><defs><clipPath id="2beae4e53f"><path d="M 5.734375 43.714844 L 744.484375 43.714844 L 744.484375 120 L 5.734375 120 Z M 5.734375 43.714844 " clip-rule="nonzero"/></clipPath><clipPath id="65621c7879"><path d="M 130 109 L 707 109 L 707 202.714844 L 130 202.714844 Z M 130 109 " clip-rule="nonzero"/></clipPath></defs><g clip-path="url(#2beae4e53f)"><path fill="#000000" d="M 147.914062 95.125 L 175.027344 94.179688 L 214.011719 91.96875 C 214.011719 91.96875 233.03125 97.757812 233.976562 89.761719 C 234.1875 87.550781 260.566406 86.078125 260.566406 86.078125 L 267.183594 83.976562 C 267.183594 83.976562 276.011719 83.132812 280.003906 81.34375 C 284 79.558594 284.839844 79.558594 287.046875 79.558594 C 289.253906 79.558594 298.605469 79.558594 300.8125 79.558594 C 303.019531 79.558594 328.660156 80.398438 328.660156 80.398438 L 343.265625 79.976562 L 354.300781 74.191406 C 354.300781 74.191406 382.988281 67.667969 384.777344 67.457031 C 385.722656 67.351562 386.667969 67.351562 387.613281 67.25 C 388.242188 67.25 388.769531 67.144531 389.398438 67.144531 C 390.660156 67.039062 391.921875 66.933594 393.183594 66.828125 C 394.96875 66.722656 401.378906 66.511719 403.375 68.40625 C 405.6875 70.613281 418.824219 70.195312 418.824219 70.195312 C 418.824219 70.195312 424.601562 69.351562 425.863281 68.828125 C 427.230469 68.40625 432.0625 67.039062 440.050781 67.039062 C 448.039062 67.039062 460.015625 70.089844 460.015625 70.089844 C 460.015625 70.089844 471.472656 65.25 474.519531 61.988281 C 475.886719 61.882812 477.355469 61.882812 478.722656 61.777344 C 480.402344 62.933594 481.980469 64.722656 482.925781 64.722656 C 484.710938 64.722656 511.71875 63.882812 513.503906 63.355469 C 515.292969 62.933594 522.753906 65.566406 522.753906 65.566406 C 522.753906 65.566406 537.359375 65.566406 542.195312 66.933594 C 547.027344 68.300781 548.394531 66.089844 549.234375 63.882812 C 550.074219 61.671875 568.675781 63.460938 568.675781 63.460938 C 568.675781 63.460938 573.507812 64.300781 578.867188 66.089844 C 584.226562 67.878906 586.855469 66.089844 589.480469 65.25 C 592.109375 64.40625 608.503906 64.40625 608.503906 64.40625 C 608.503906 64.40625 629.308594 71.457031 632.882812 71.035156 C 636.457031 70.613281 642.128906 71.457031 646.648438 71.457031 C 651.0625 71.457031 663.042969 74.507812 665.25 74.085938 C 667.457031 73.664062 671.449219 71.878906 671.449219 71.878906 L 704.234375 76.609375 L 744.484375 74.71875 L 729.457031 68.40625 L 721.050781 67.5625 C 721.050781 67.5625 711.800781 65.355469 709.488281 64.933594 C 707.175781 64.511719 702.871094 62.304688 702.871094 62.304688 L 694.042969 60.9375 C 694.042969 60.9375 694.042969 60.9375 685.214844 60.09375 L 676.808594 60.09375 L 660.414062 57.042969 C 660.414062 57.042969 650.117188 62.933594 648.015625 60.621094 C 645.914062 58.304688 641.394531 58.832031 641.394531 58.832031 C 641.394531 58.832031 633.828125 57.464844 630.78125 56.203125 C 627.734375 54.835938 625.945312 56.203125 625.945312 56.203125 L 609.554688 52.519531 L 599.359375 54.835938 L 591.792969 52.519531 L 582.546875 54.414062 L 575.503906 50.417969 L 566.257812 52.519531 L 556.484375 52.519531 C 556.484375 52.519531 547.660156 52.203125 544.503906 52.519531 C 541.351562 52.835938 534.3125 49.574219 532.527344 49.152344 C 530.738281 48.734375 520.964844 49.152344 519.285156 49.152344 C 517.605469 49.152344 514.453125 52.519531 514.453125 52.519531 C 514.453125 52.519531 506.042969 50.941406 504.679688 52.519531 C 503.3125 54.097656 494.90625 47.785156 494.90625 47.785156 C 494.90625 47.785156 490.914062 53.152344 488.285156 49.574219 C 485.65625 45.996094 479.039062 48.207031 477.671875 48.207031 C 476.304688 48.207031 453.816406 52.519531 453.816406 52.519531 L 435.21875 47.785156 C 435.21875 47.785156 435.21875 47.785156 433.429688 47.785156 C 431.644531 47.785156 428.070312 49.574219 428.070312 49.574219 L 424.078125 46.945312 L 406.84375 48.734375 L 396.652344 43.894531 C 396.652344 43.894531 391.816406 49.257812 390.03125 47.890625 C 388.242188 46.523438 375.109375 47.890625 375.109375 47.890625 L 367.855469 50.519531 L 350.308594 50.519531 L 333.914062 52.625 L 325.191406 56.414062 L 318.046875 52.625 C 318.046875 52.625 305.121094 57.886719 302.074219 58.199219 C 299.027344 58.410156 295.875 55.464844 295.875 55.464844 L 282.632812 55.464844 L 264.980469 61.671875 L 259.199219 62.304688 C 259.199219 62.304688 256.886719 62.515625 252.054688 59.464844 C 247.21875 56.414062 244.488281 59.464844 244.488281 59.464844 L 235.238281 59.464844 L 223.679688 62.515625 L 219.6875 64.300781 C 219.6875 64.300781 213.90625 62.933594 209.914062 62.515625 C 205.921875 62.09375 205.921875 65.144531 205.921875 65.144531 L 194.359375 70.089844 L 183.644531 72.824219 L 177.546875 70.089844 L 167.460938 70.089844 C 167.460938 70.089844 159.894531 71.351562 158.632812 70.507812 C 157.371094 69.667969 153.273438 70.507812 153.273438 70.507812 C 153.273438 70.507812 148.859375 75.875 140.03125 81.136719 C 136.460938 81.871094 132.992188 82.609375 129.417969 83.449219 C 123.847656 83.132812 119.226562 81.136719 119.226562 81.136719 L 112.605469 81.136719 C 112.605469 81.136719 108.613281 85.972656 107.246094 86.078125 C 105.878906 86.183594 96.210938 86.289062 96.210938 86.289062 C 96.210938 86.289062 90.011719 84.710938 85.597656 91.339844 C 84.230469 93.339844 83.179688 94.496094 82.339844 95.125 C 81.605469 95.335938 80.765625 95.546875 80.027344 95.757812 C 79.609375 95.652344 79.398438 95.335938 79.398438 95.335938 C 79.398438 95.335938 75.195312 97.125 68.363281 95.335938 C 68.363281 95.335938 60.796875 95.335938 58.171875 95.335938 C 55.542969 95.335938 53.335938 95.863281 51.550781 95.335938 C 49.765625 94.8125 47.976562 98.914062 45.769531 99.753906 C 43.5625 100.597656 33.371094 110.066406 33.371094 110.066406 L 32.214844 110.484375 C 23.28125 113.535156 14.453125 116.691406 5.734375 119.953125 L 59.011719 112.589844 L 67.839844 112.589844 L 88.226562 108.171875 L 100.625 106.382812 C 100.625 106.382812 105.355469 102.070312 111.660156 101.019531 C 117.964844 99.964844 121.011719 102.804688 127.632812 102.386719 C 134.253906 101.753906 147.703125 95.230469 147.914062 95.125 Z M 147.914062 95.125 " fill-opacity="1" fill-rule="nonzero"/></g><g clip-path="url(#65621c7879)"><path fill="#000000" d="M 688.472656 120.164062 L 670.503906 115.640625 C 670.503906 115.640625 667.5625 117.957031 666.613281 117.007812 C 665.773438 116.167969 652.742188 113.851562 652.742188 113.851562 L 648.644531 117.007812 C 648.644531 117.007812 637.402344 115.007812 636.558594 115.640625 C 635.71875 116.273438 598.519531 112.167969 593.789062 111.433594 C 589.0625 110.800781 592.320312 111.433594 589.0625 111.433594 C 585.804688 111.433594 582.863281 109.222656 582.019531 109.011719 C 581.179688 108.800781 574.980469 113.222656 574.035156 113.222656 C 573.195312 113.222656 563.105469 111.011719 559.847656 110.589844 C 556.589844 110.171875 555.121094 109.222656 551.863281 109.011719 C 548.605469 108.800781 542.71875 112.167969 542.71875 112.167969 L 524.433594 112.167969 L 487.863281 117.007812 L 475.148438 119.113281 C 475.148438 119.113281 462.75 119.429688 461.910156 119.21875 C 461.066406 119.007812 453.398438 119.21875 452.449219 119.21875 C 451.503906 119.21875 444.148438 123.003906 443.308594 122.058594 C 442.46875 121.214844 427.652344 122.058594 426.179688 122.058594 C 424.707031 122.058594 399.59375 129.84375 399.59375 129.84375 C 399.59375 129.84375 384.25 129.84375 382.777344 129.84375 C 381.308594 129.84375 378.367188 132.683594 375.421875 132.683594 C 372.480469 132.683594 361.550781 134.050781 360.710938 134.261719 C 359.871094 134.472656 355.351562 136.050781 354.511719 136.679688 C 353.671875 137.3125 344.738281 136.679688 344.738281 136.679688 C 344.738281 136.679688 339.167969 139.101562 338.222656 139.101562 C 337.382812 139.101562 330.238281 142.363281 330.238281 142.363281 C 330.238281 142.363281 325.507812 142.675781 324.035156 142.46875 C 322.566406 142.257812 310.164062 142.46875 310.164062 142.46875 L 290.722656 150.882812 C 290.722656 150.882812 286.835938 152.039062 285.679688 152.039062 C 284.523438 152.039062 281.582031 151.410156 280.320312 150.882812 C 279.164062 150.460938 275.277344 152.671875 274.4375 152.671875 C 273.59375 152.671875 269.707031 157.828125 269.707031 157.828125 L 266.449219 158.878906 L 257.308594 158.878906 C 257.308594 158.878906 249.636719 157.828125 248.164062 157.828125 C 246.695312 157.828125 239.863281 164.453125 239.863281 164.453125 L 233.03125 164.453125 C 233.03125 164.453125 218.425781 170.976562 216.007812 172.027344 L 209.808594 172.027344 L 200.035156 175.921875 L 193.207031 176.972656 L 186.691406 183.179688 C 186.691406 183.179688 181.015625 183.707031 179.4375 184.019531 C 177.863281 184.335938 176.390625 184.019531 176.390625 184.019531 C 176.390625 184.019531 172.398438 186.335938 171.769531 186.335938 C 171.136719 186.335938 166.933594 186.652344 165.148438 186.335938 C 163.359375 186.019531 161.785156 189.175781 161.785156 189.175781 C 161.785156 189.175781 159.15625 191.175781 157.160156 190.964844 C 155.164062 190.753906 151.171875 192.964844 151.171875 192.964844 L 150.015625 195.59375 L 143.605469 195.59375 L 130.890625 202.535156 L 150.121094 200.75 L 153.902344 198.222656 C 154.007812 198.222656 154.113281 198.222656 154.324219 198.117188 L 168.40625 195.488281 C 168.511719 195.488281 168.617188 195.488281 168.71875 195.488281 L 180.804688 197.171875 L 230.929688 188.546875 C 230.929688 188.546875 234.1875 186.96875 235.976562 186.546875 C 237.761719 186.125 255.414062 182.96875 257.832031 182.96875 C 260.144531 182.96875 279.375 178.550781 279.375 178.550781 C 279.375 178.550781 288.519531 176.972656 293.246094 176.972656 C 297.976562 176.972656 298.289062 176.339844 298.289062 176.339844 C 298.289062 176.339844 307.75 173.710938 312.476562 172.554688 C 317.207031 171.398438 338.75 171.398438 341.058594 169.925781 C 343.371094 168.347656 348.101562 168.136719 349.886719 168.136719 C 351.675781 168.136719 383.199219 163.71875 383.199219 163.71875 C 383.199219 163.71875 389.714844 163.507812 392.027344 163.929688 C 394.339844 164.347656 409.996094 161.929688 409.996094 161.929688 L 429.4375 157.929688 L 440.15625 151.621094 L 472.835938 153.617188 C 472.835938 153.617188 482.820312 149.199219 484.605469 149.199219 C 486.394531 149.199219 492.910156 150.566406 492.910156 150.566406 C 492.910156 150.566406 499.738281 145.726562 499.84375 143.730469 C 504.046875 143.203125 508.144531 142.675781 512.347656 142.152344 C 518.023438 142.046875 523.59375 142.152344 523.59375 142.152344 L 542.195312 144.992188 C 542.195312 144.992188 562.894531 142.152344 564.050781 141.835938 C 565.207031 141.625 576.453125 136.050781 577.921875 136.050781 C 579.394531 136.050781 599.464844 138.257812 613.652344 137.207031 C 627.839844 136.050781 619.011719 136.574219 619.011719 133.839844 C 619.011719 131.210938 626.367188 133.417969 628.152344 133.417969 C 629.941406 133.417969 637.296875 132.789062 640.238281 131.632812 C 643.179688 130.472656 651.484375 129.84375 651.484375 129.84375 L 656.84375 133.628906 L 706.96875 126.054688 L 695.410156 118.902344 Z M 688.472656 120.164062 " fill-opacity="1" fill-rule="nonzero"/></g></svg>